# xmcd
#
# Track frame offsets: 
#        150
#        16722
#        38825
#        64825
#        106710
#        135517
#        167105
#        189117
#        220447
#        246097
#        269152
#        295852
#        323410
#
# Disc length: 4775 seconds
#
# Revision: 3
# Processed by: cddbd v1.5.1PL0 Copyright (c) Steve Scherf et al.
# Submitted via: ExactAudioCopy v0.90b4
#
DISCID=b212a50d
DTITLE=Various Artist - Kings Of Africa
DYEAR=1997
DGENRE=Ethnic
TTITLE0=Youssou N'Dour - Set
TTITLE1=Kanda Bongo Man - Zing Zong
TTITLE2=Ali Farka Toure - Hawa Dolo
TTITLE3=Franco - Tres Impoli
TTITLE4=Papa Wemba - Kaokokorobo
TTITLE5=Baaba Maal - Demgalam
TTITLE6=Kasse Mady Diabate - Den Te San
TTITLE7=The Four Starts - Zunguluke
TTITLE8=Manu Dibango - Big Blow
TTITLE9=Meiway - Nanan
TTITLE10=Ismael Lo - Jelebi
TTITLE11=Thomas Mapfumo - Ndozvamaida
TTITLE12=Koffi Olomide - Andrada
EXTD=ID3G:   0
EXTT0=N'Dour/Faye\n
EXTT1=KandaBongo Man/Soki Vangu\n
EXTT2=Toure\n
EXTT3=Luambo\n
EXTT4=Lolo\n
EXTT5=Maal\n
EXTT6=Diabate/Maiga\n
EXTT7=Mansiamina\n
EXTT8=Dibango\n
EXTT9=Meiway\n
EXTT10=Lo\n
EXTT11=Mapfumo\n
EXTT12=Olomide\n
PLAYORDER=
